<svg width="124" height="72" viewBox="0 0 124 72" fill="none" xmlns="http://www.w3.org/2000/svg">
<path d="M79.8467 1.63282C86.0821 0.797812 93.3196 4.16272 99.3236 5.7994C99.2581 5.84906 99.1914 5.89762 99.1236 5.94472C97.4201 7.14901 95.3954 7.84581 93.4352 8.37519C87.2989 10.0332 81.7078 9.03378 75.5865 8.13811C74.6376 7.99924 73.6095 7.99546 72.6473 7.97857C72.194 7.97057 71.6978 8.05468 71.2844 7.98302L71.2212 7.8447C71.6181 6.93004 75.2696 5.95039 76.3153 5.65665C80.6811 4.58211 86.3921 5.10438 90.8237 5.51866C90.2481 5.30169 89.1713 5.06638 88.5313 4.95029C83.6473 4.06295 77.842 3.86042 73.1647 5.75541C71.1832 6.5582 69.3628 7.86726 67.6226 9.06844C69.5618 4.30993 74.9824 1.94011 79.8467 1.63282Z" fill="#15AD07"/>
<path d="M90.9417 5.48298C91.4284 5.40199 91.9384 5.51819 92.3718 5.74416C91.6962 5.83059 91.4995 5.86071 90.9417 5.48298Z" fill="#E28E63"/>
<path d="M83.6875 64.0522C91.1939 63.4423 98.8848 68.0506 106.485 66.4652C107.002 66.3575 107.994 65.8431 108.444 65.9675L108.494 66.1797C108.093 67.7717 104.998 69.4438 103.63 70.1292C100.126 71.9301 94.9844 72.3067 91.2173 71.1458C85.6566 69.4326 82.0597 67.7884 76.086 68.6527C76.9471 68.1861 77.7238 67.9417 78.6667 67.7162C85.7555 66.2653 92.5752 69.286 100.057 69.1049C97.8147 68.7816 95.58 68.4017 93.3564 67.9651C87.8369 66.8952 82.374 65.602 76.8427 67.5473C75.037 68.1828 73.681 69.0582 72.0605 70.0515C75.1843 65.8775 78.5098 64.4155 83.6875 64.0522Z" fill="#15AD07"/>
<path d="M111.015 2.46869C112.355 2.70444 112.047 4.77184 112.072 5.89992C112.612 5.12013 114.172 2.76454 115.327 3.20093C115.253 3.56011 113.902 4.82451 113.56 5.27756C112.46 6.73504 111.151 10.9201 110.846 12.6504C112.824 11.2832 114.031 8.62425 115.191 8.00177L115.331 8.05532C115.716 9.82776 112.001 12.9077 110.525 13.7125C109.94 15.6631 108.803 18.5456 108.032 20.465C109.311 19.0125 110.342 17.2086 111.727 15.8197C112.527 15.0178 114.259 13.3484 115.366 13.0932C116.019 13.3619 115.591 14.34 115.378 14.8517C114.002 18.1532 112.662 20.2441 109.288 21.7348C108.598 21.9566 107.952 22.0414 107.24 22.1554C106.755 22.8793 106.112 23.9873 105.349 24.3635L105.213 24.2586C105.263 23.3978 106.16 22.1994 106.65 21.4517C105.525 18.6222 104.761 17.4527 104.656 14.0849C104.63 13.2494 104.45 10.3216 104.99 9.69878C105.273 9.7441 105.398 9.81054 105.563 10.076C107.646 13.4251 107.687 16.8354 107.313 20.5194C108.054 18.9782 109.378 15.31 109.894 13.6122C107.418 11.2498 106.352 7.04556 107.121 3.74331C109.273 5.55975 109.889 8.79034 110.526 11.4349C110.872 10.1173 111.457 8.09909 111.391 6.80137C111.321 5.42854 111.056 4.04304 111.018 2.63222L111.015 2.46869ZM108.417 21.253C111.772 19.7805 112.66 18.6644 114.392 15.1916C114.498 14.9809 114.559 14.758 114.534 14.5231L114.485 14.465C112.574 15.8547 111.113 17.8299 109.59 19.6135C109.229 20.0369 108.573 20.7131 108.308 21.1458L108.417 21.253ZM105.361 11.7432C105.361 14.7854 105.588 16.2831 106.552 19.1965L106.718 19.261C106.79 17.3487 106.753 13.1606 105.361 11.7432ZM109.709 12.4891C109.716 11.4012 108.437 6.13823 107.572 5.51342C107.704 7.37918 108.441 11.2064 109.709 12.4891Z" fill="#FFA719"/>
<path d="M104.653 29.0649C109.187 31.2914 119.168 30.933 123.901 29.1723C123.681 30.8808 123.27 31.5878 122.241 32.9537C121.056 34.2704 119.694 35.2181 117.948 35.6025C115.021 36.2457 110.742 36.2724 108.138 34.6304C105.94 33.2442 105.2 31.4503 104.653 29.0649Z" fill="#F5C77D"/>
<path d="M108.846 25.7503L108.965 25.6883C110.446 24.9003 111.28 23.3099 112.888 22.6206C115.875 21.3412 117.474 24.4565 119.682 25.7465C120.396 25.7892 122.002 25.932 122.459 26.5167C122.382 27.0021 121.782 27.0927 121.351 27.2342C117.727 28.1614 111.03 28.1347 107.386 27.1623C106.946 27.0866 106.087 26.9977 106.079 26.4789C106.698 25.9556 108.018 25.8654 108.846 25.7503Z" fill="#F42100"/>
<path d="M107.386 27.1623C106.946 27.0866 106.087 26.9978 106.079 26.4789C106.698 25.9557 108.018 25.8655 108.846 25.7504C108.376 26.396 108.006 26.6624 107.386 27.1623Z" fill="#F5C77D"/>
<path d="M119.682 25.7466C120.396 25.7892 122.002 25.932 122.459 26.5167C122.382 27.0021 121.782 27.0928 121.351 27.2343C120.786 26.4876 120.442 26.2942 119.682 25.7466Z" fill="#F5C77D"/>
<path d="M112.536 25.2094L112.566 25.4193C112.281 26.2796 111.68 26.766 110.901 27.1582L110.881 27.0141C111.63 26.2681 111.849 26.0793 112.536 25.2094Z" fill="#E28E63"/>
<path d="M115.713 24.9914C115.497 24.8335 117.507 26.9936 117.543 27.0303C116.568 26.8375 115.971 25.8778 115.713 24.9914Z" fill="#E28E63"/>
<path d="M36.9524 1.87354C37.0657 2.597 34.5399 7.90278 34.061 8.47715C34.0794 7.80657 36.471 2.52723 36.9524 1.87354Z" fill="#54623E" fill-opacity="0.0509804"/>
<path d="M41.6089 5.67944L41.6922 5.83398C40.4158 6.86618 38.1716 8.15846 36.7159 9.13156C36.682 9.09712 36.6485 8.9978 36.6263 8.9457C37.1466 8.24123 40.6368 6.25282 41.6089 5.67944Z" fill="#54623E" fill-opacity="0.109804"/>
<path d="M42.7475 4.88318L42.8435 4.95784C42.6726 5.32313 42.2963 5.50177 41.926 5.77229L41.8435 5.6322C42.0229 5.31079 42.4279 5.09571 42.7475 4.88318Z" fill="#54623E"/>
<path d="M88.5591 36.6179C89.3325 36.529 92.394 36.6012 93.3108 36.6046C98.0324 36.5801 102.753 36.739 107.462 37.0812C104.661 37.8655 94.7443 37.7722 91.4228 37.7711C87.4267 37.7833 83.4296 37.7389 79.4346 37.6378C77.3075 37.5867 74.5705 37.5589 72.4885 37.3689C76.9962 36.4746 83.9319 36.8601 88.5591 36.6179Z" fill="#596B44"/>
<path d="M104.643 27.2945C104.896 27.4196 105.156 27.531 105.42 27.6286C109.812 29.2572 119.512 29.313 123.773 27.3835L123.914 27.4454C123.977 27.8552 123.999 28.0162 124 28.4277C120.889 30.407 107.517 30.5545 104.699 28.4867C104.508 28.1262 104.603 27.7236 104.643 27.2945Z" fill="#F5C77D"/>
<path d="M31.2612 1.63861C31.5555 2.43684 31.2431 7.77551 31.0701 8.80526C30.6884 7.94171 31.0365 2.55116 31.2612 1.63861Z" fill="#596B44" fill-opacity="0.0705882"/>
<path d="M9.86468 53.7968C9.93469 53.8679 9.89402 53.8146 9.93691 53.9824C9.57831 54.3656 9.09103 54.5978 8.62831 54.8633C8.5363 54.7656 8.56097 54.7745 8.51074 54.6367C8.88234 54.1234 9.25939 53.9535 9.86468 53.7968Z" fill="#596B44" fill-opacity="0.0117647"/>
<path d="M110.334 36.3901C111.925 36.6334 113.536 36.7223 115.146 36.6579C116.057 36.6145 117.051 36.5079 117.964 36.4934C118.211 36.489 118.235 36.6001 118.386 36.7812C118.422 37.2489 118.46 37.0623 118.228 37.4822C116.869 37.7966 110.773 38.3321 110.063 37.0334C110.081 36.6956 110.135 36.659 110.334 36.3901Z" fill="#F5C77D"/>
<path d="M16.2576 0.0607874C18.0913 -0.179849 20.5435 0.31576 22.1867 1.16232C27.0711 3.67867 27.9341 9.73724 29.2515 14.526C30.0992 17.6072 30.861 20.7007 31.8328 23.7436C32.6254 23.4921 34.4582 22.794 35.1956 22.9575C35.5646 24.1849 33.4239 25.2098 32.5353 25.5998C33.2202 28.1135 34.6625 30.9835 36.3459 33.0191C38.3922 35.5291 41.5484 36.9934 44.7615 37.1578C45.795 37.2111 46.778 36.9023 47.8579 37.0311C44.3514 38.461 38.0702 38.0388 34.631 36.479C29.6046 34.1993 27.9368 30.9603 26.0219 26.2619C23.2014 26.1553 20.6227 25.1842 17.9995 24.2642C17.5427 25.6979 17.0587 27.1228 16.5478 28.5382C15.5785 31.3159 14.3227 34.5448 11.6533 36.0113C7.8721 38.031 3.12276 36.6101 1.06062 32.8715C-1.25876 28.6662 0.354649 22.4879 4.64482 20.2275C8.47039 18.212 12.9082 18.76 16.8778 19.9462C17.8637 17.7869 18.7564 15.1453 19.5357 12.8932C19.9267 11.7631 20.5593 10.2122 20.798 9.09165C18.7854 6.50609 15.8644 5.15815 12.995 7.79437C12.2224 8.50417 11.7952 9.61425 11.8036 10.6677C11.8172 12.3981 12.9814 12.8516 14.0699 13.8794C13.4841 13.8437 12.904 13.8245 12.3293 13.6952C7.12279 12.5258 6.65995 6.32145 9.83566 2.78656C11.5709 0.855025 13.7361 0.238987 16.2576 0.0607874ZM9.57019 30.6804C12.1293 29.4981 14.503 26.0804 15.5433 23.4935C14.2904 23.2131 12.4873 22.9058 11.212 23.0562C9.33138 23.2378 7.42738 23.7468 6.17289 25.2703C5.48348 26.0947 5.15911 27.164 5.27423 28.2324C5.53337 30.5253 7.56717 31.2919 9.57019 30.6804ZM19.16 20.735C20.0676 21.282 22.1027 22.018 23.1687 22.4376C23.8381 22.7366 24.4384 23.0029 25.1247 23.2584C24.8342 22.3083 24.2463 20.3517 23.9764 19.4956C23.627 18.3868 22.2991 12.5334 21.869 11.9931C21.5002 13.1305 21.2365 14.2516 20.8875 15.392C20.3416 17.1761 19.7029 18.952 19.16 20.735Z" fill="#FE8C00"/>
<path d="M71.7431 10.7245C72.5146 10.6391 73.3991 10.6707 74.1422 10.7375C80.6067 11.3179 80.9662 15.2844 80.7669 20.7581C80.7631 24.1214 80.6788 27.4519 80.8806 30.8094C80.9879 32.5937 81.7275 32.628 81.9899 33.6116C81.3419 34.5615 78.4083 34.7314 77.3392 34.5881C75.6936 34.3659 75.1603 33.1012 74.7562 31.7176C72.8296 34.7192 68.4793 35.8502 65.4732 33.8171C63.9893 32.813 63.4567 31.4162 63.1671 29.7298C63.1597 29.6225 63.1535 29.5152 63.1484 29.4079C62.8682 23.5252 66.7609 21.8115 71.3229 19.8256C73.1183 19.0441 74.7835 18.2691 74.7177 16.1277C74.644 13.7283 74.1665 12.268 71.3366 12.4802C70.7756 12.5236 69.5842 13.0551 69.2974 13.6062C68.0887 15.9294 73.0929 18.3019 68.2535 19.3342C66.5336 19.6842 64.3202 18.3302 64.2857 16.4655C64.2115 12.4824 68.3908 10.8965 71.7431 10.7245ZM70.1457 30.8673C70.7304 31.377 71.1168 31.6704 71.9686 31.6131C72.7403 31.5593 73.4543 31.1848 73.9369 30.5803C74.6617 29.6742 74.6837 27.9697 74.5931 26.845C74.4437 24.9922 74.8083 22.4118 74.5587 20.6599C72.9098 21.557 71.4721 22.248 70.3709 23.8513C68.8988 25.9946 68.7233 28.6452 70.1457 30.8673Z" fill="#FE8C00"/>
<path d="M96.1412 10.9421C98.1048 10.6464 100.387 11.3914 101.225 13.3329C103.533 18.6793 100.089 30.0507 103.762 34.417C102.846 34.4525 101.706 34.3781 100.757 34.3692L94.2932 34.3381C95.0333 33.2738 95.5145 32.6439 95.6256 31.2905C95.8412 28.6691 95.79 25.9752 95.7956 23.3394C95.7545 21.2839 95.8845 19.1748 95.6811 17.1293C95.5511 15.8173 95.1366 14.4045 93.5687 14.4114C91.0439 14.4225 90.4639 17.2121 90.3627 19.2056L90.3694 26.8223C90.3794 29.9328 90.0349 31.4594 91.6896 34.1426L91.6007 34.307C90.9017 34.4292 89.3782 34.3537 88.5914 34.3515C86.5267 34.3315 84.4609 34.3492 82.3962 34.407C83.183 33.4393 83.7119 32.7403 83.9075 31.4626C84.3231 28.7464 84.3331 17.2224 83.7386 14.6152C83.5119 13.6202 83.0985 12.9225 82.5018 12.1012C85.6588 12.3131 87.4257 12.0269 90.3505 10.9011C90.4016 12.0283 90.3772 13.1576 90.275 14.2812C91.9607 12.3024 93.4831 11.2824 96.1412 10.9421Z" fill="#FE8C00"/>
<path d="M43.549 10.9425C45.7358 10.5146 48.9834 11.3628 50.6703 12.8321C51.6391 13.6644 52.2255 14.8564 52.2935 16.1317C52.4398 19.068 48.6398 20.2406 46.7136 18.3808C45.9536 17.647 46.8813 16.6259 47.3146 16.0221C49.0847 13.556 46.3166 12.4503 44.2666 12.638C42.6333 12.7838 41.476 14.0446 41.7122 15.7038C42.0743 18.2586 45.1411 19.3035 47.1133 20.3644C49.1675 21.4464 51.2771 22.6876 52.3765 24.8288C53.5393 27.0935 53.4305 30.1935 51.7425 32.1877C50.018 34.2248 48.0163 34.7259 45.476 35.0036C42.785 35.0658 40.6045 34.7903 38.5915 33.0956C34.3625 29.5344 37.7171 23.8565 42.6089 26.9338C43.4749 28.2305 41.1441 29.078 41.3602 30.9082C41.7739 34.4137 48.7323 33.7227 48.0494 29.8294C47.4284 26.2887 42.2212 25.0752 39.5937 23.0772C36.3023 20.5746 35.9032 16.9542 38.1095 13.5442C39.0748 12.0875 41.8034 11.1613 43.549 10.9425Z" fill="#FE8C00"/>
<path d="M61.5506 11.1331C61.7487 11.2197 61.769 11.1751 61.7815 11.3497C61.8753 12.6713 61.5334 14.1548 61.477 15.4923C61.341 18.7231 61.3646 21.9108 61.3662 25.1438C61.3672 27.1833 61.2899 29.4589 61.5517 31.4679C61.6591 32.2921 62.3482 33.5627 62.7386 34.3326C62.2768 34.3459 61.8153 34.3248 61.354 34.3037C58.7748 34.1893 56.1989 34.3104 53.6191 34.3515C53.6012 33.906 54.6569 32.1671 54.8721 31.4567C55.3126 30.0029 55.2407 17.4268 54.9513 15.6878C54.7273 14.341 54.2065 13.206 53.5688 12.0163C57.0538 12.3735 58.3042 12.3669 61.5506 11.1331Z" fill="#FE8C00"/>
<path d="M55.1664 3.16571C55.8283 3.39357 57.7826 6.46963 57.7626 7.15221L57.2896 7.5356C58.4772 8.01099 61.8627 4.3309 62.7861 5.57241C62.8304 6.158 62.4086 6.89258 62.135 7.40473C60.5496 9.9493 55.1261 11.5542 54.4925 7.39196C54.2418 5.74528 54.2493 4.59342 55.1664 3.16571Z" fill="#FE8C00"/>
<path d="M59.4183 0.489197L59.6941 0.509526C59.9609 0.751606 59.8783 0.600627 59.9058 0.999576C59.6958 1.52207 58.5206 2.06033 58.0549 2.59427C57.2107 3.56237 57.9635 4.70066 57.9933 5.74964L57.8875 5.84652L57.6762 5.62344C57.1842 4.55591 55.5769 2.86312 56.5055 1.63572C57.0422 0.926254 58.5615 0.620847 59.4183 0.489197Z" fill="#FE8C00"/>
<path d="M61.8383 3.24463C62.6368 3.26774 62.7588 3.98298 62.952 4.61423C61.4066 4.8912 60.8342 5.05374 59.5353 5.91641L59.0835 6.25425L58.9039 6.19637C58.5553 4.74077 60.6215 3.51293 61.8383 3.24463Z" fill="#FE8C00"/>
<path d="M60.5463 1.82104C61.0954 1.8747 61.3721 2.05302 61.7538 2.45108C61.77 3.06011 60.5043 3.00679 59.9339 3.38785C59.3561 3.77391 59.2629 3.91578 58.8628 4.44072C58.6943 4.96721 58.5502 5.28861 58.3247 5.78999C58.1748 3.75836 57.9855 2.12078 60.5463 1.82104Z" fill="#FE8C00"/>
<path d="M31.7653 12.1413L31.9585 12.2837C32.4386 11.6966 33.5422 9.53505 33.4756 8.81625C33.1481 5.28047 33.9802 2.71257 37.6684 0.960571C37.8914 6.9296 35.3864 6.43555 33.3518 10.7512C34.2938 10.2702 35.9367 9.60893 36.333 8.66661C37.6696 5.48856 40.6816 4.1384 44.1343 4.54657C42.8026 7.6094 40.97 8.90246 37.7844 9.52661C35.4184 9.99021 33.163 10.6915 32.1447 12.9424C31.8992 13.485 31.6907 14.1774 31.3073 14.6357L31.1718 14.5898C31.0769 14.1009 31.234 13.3931 31.4 12.9257C31.4475 12.7749 31.5086 12.4242 31.5456 12.2444L31.7653 12.1413ZM36.9523 1.87357C36.4709 2.52727 34.0793 7.8066 34.061 8.47718C34.5398 7.90281 37.0657 2.59703 36.9523 1.87357ZM36.716 9.13155C38.1717 8.15845 40.4159 6.86616 41.6922 5.83396L41.609 5.67943C40.6369 6.2528 37.1467 8.24121 36.6264 8.94568C36.6485 8.99778 36.6821 9.09711 36.716 9.13155Z" fill="#15AD07"/>
<path d="M30.6959 9.49329C29.9039 7.21169 29.4274 4.85443 30.3229 2.53672C30.5464 1.95835 30.8511 1.06702 31.4078 0.807495C31.7089 1.01669 31.8563 1.48496 31.9711 1.83725C33.0557 5.16861 32.6589 6.3178 31.2309 9.22321C31.018 9.30398 30.8672 9.34165 30.6959 9.49329ZM31.0701 8.80527C31.2432 7.77551 31.5555 2.43685 31.2613 1.63861C31.0366 2.55117 30.6884 7.94171 31.0701 8.80527Z" fill="#15AD07"/>
<path d="M30.6958 9.49329C30.8672 9.34164 31.018 9.30397 31.2309 9.22321C31.3343 10.1591 31.5827 11.2056 31.7653 12.1413L31.5456 12.2444C31.5086 12.4243 31.4474 12.7749 31.4 12.9257C31.2478 11.6732 31.0687 10.6957 30.6958 9.49329Z" fill="#15AD07"/>
<path d="M6.29345 55.1533C5.61104 54.96 4.28466 54.6722 4.59114 53.7857C4.94907 53.4146 5.19621 53.348 5.6656 53.1391L5.75383 53.5835C5.56059 53.8112 5.40946 53.8357 5.26055 54.0368L5.20943 54.2034C5.64671 54.6767 6.40958 54.6067 6.87796 54.1868L7.14489 54.3812L6.87307 54.6734C6.90697 54.7256 6.95808 54.8178 7.00042 54.8533C6.72661 54.9878 6.5806 55.0522 6.29345 55.1533Z" fill="#FFA719"/>
<path d="M13.9944 51.3471C13.0483 50.5494 12.1306 49.384 11.2367 48.693C9.37952 47.2554 7.47485 45.8389 5.67308 44.3146C4.87776 43.6414 3.46637 43.4814 2.57538 42.6904C1.40713 41.6528 0.37256 39.3753 0.949851 37.8632C1.3 37.691 1.38212 37.8032 1.84262 37.9188C3.54316 38.4998 6.10402 40.1618 5.91588 42.2271C5.94 42.9093 5.91755 43.0626 5.78565 43.7358C6.53473 44.4557 9.77189 47.3976 10.6109 47.5876L10.8494 47.6353L11.0193 47.4609C11.1164 47.6442 11.0909 47.5942 11.239 47.7476C11.4088 47.4709 11.3519 46.9121 11.3489 46.5566C11.4005 46.7899 11.4627 47.0121 11.5254 47.2409C11.6543 47.0987 11.6443 46.6899 11.6658 46.451C11.6716 47.1121 11.6831 47.6442 11.6147 48.3008C12.4823 49.4951 14.2123 51.2827 15.4273 52.0648L15.3484 52.5347C14.4931 51.8193 11.6866 50.886 10.5984 50.9038C8.16137 50.9416 5.77987 51.2716 3.79141 49.4684C3.29157 49.0152 2.45759 47.9542 2.42103 47.2754C2.84408 46.5455 4.26413 46.611 5.01733 46.641C7.71787 46.7499 9.34651 47.8064 10.2837 50.2972C11.4543 50.5361 12.8568 50.9849 13.9944 51.3471ZM5.57784 43.0048C5.68652 42.0005 5.32203 40.7329 4.58339 40.0285L4.36914 40.0474C4.2309 40.4207 4.36681 40.9373 4.43082 41.3584C4.45516 41.8827 4.96821 42.9415 5.48183 43.0604L5.57784 43.0048ZM1.22999 38.8487C0.968741 40.0674 2.16555 41.4295 3.42959 41.4828L3.5626 41.3661C2.56937 40.4774 2.04542 39.8685 1.22999 38.8487ZM3.50282 47.1732C3.61739 47.4798 5.90566 48.5686 6.32049 48.6841C5.96789 47.6287 4.59717 46.9354 3.50282 47.1732ZM2.13721 41.545C2.93597 42.4927 3.88464 43.2948 5.1698 43.4914C4.20368 42.0227 3.80163 42.0038 2.13721 41.545ZM10.2616 50.2372C9.69588 50.1106 8.19137 49.694 7.7561 49.6506C7.19048 50.105 6.91956 50.1972 6.2467 50.485C7.33483 50.6205 7.87312 50.6494 8.96091 50.6505C9.38118 50.5205 9.85235 50.3861 10.2616 50.2372ZM7.06324 48.9507C7.94279 49.2518 8.87357 49.5773 9.76689 49.8217C8.82734 48.1942 7.51129 47.1465 5.55517 47.1065C6.25148 47.8064 6.50129 48.1564 7.06324 48.9507ZM3.98066 48.8485C4.03544 49.4596 5.28381 49.9384 5.80987 50.1373L7.16192 49.8106L7.24426 49.624C6.74276 48.9219 4.77753 48.7919 3.98066 48.8485Z" fill="#FFA719"/>
<path d="M1.84261 37.9188C3.54314 38.4998 6.104 40.1618 5.91587 42.2271C5.65217 42.5737 5.62806 42.5871 5.57783 43.0048C5.68651 42.0005 5.32202 40.7329 4.58338 40.0285L4.36913 40.0474C4.23089 40.4207 4.3668 40.9373 4.43081 41.3583L4.27701 41.5105C4.1211 41.4772 3.69861 41.3783 3.56259 41.3661C2.56936 40.4773 2.04541 39.8685 1.22998 38.8487C1.60703 38.1099 1.21109 38.382 1.84261 37.9188Z" fill="#FFA719"/>
<path d="M15.3485 52.5347L15.3717 52.9869C14.241 53.0658 12.1448 53.2969 11.1596 53.7268C9.00261 54.6678 9.16029 55.6732 6.2934 55.1533C6.58054 55.0522 6.72656 54.9878 7.00037 54.8533C7.69123 54.7933 7.84047 54.7134 8.40776 54.3112L8.43243 54.1501C8.03149 54.0446 7.56822 54.2512 7.14483 54.3812L6.87791 54.1868C6.67889 54.1301 5.69566 54.109 5.2605 54.0368C5.4094 53.8357 5.56053 53.8112 5.75378 53.5835L5.66554 53.1391C6.38363 52.6336 7.93604 52.4303 8.81459 52.4559C9.77781 52.4847 10.238 52.6947 11.0171 53.2102C11.9335 53.0047 15.0625 52.6225 15.3485 52.5347ZM8.62834 54.8633C9.09106 54.5978 9.57834 54.3656 9.93694 53.9823C9.89404 53.8146 9.93472 53.8679 9.86471 53.7968C9.25941 53.9534 8.88237 54.1234 8.51077 54.6367C8.561 54.7745 8.53633 54.7656 8.62834 54.8633Z" fill="#FFA719" fill-opacity="0.988235"/>
<path d="M8.9234 45.289C8.06486 44.5513 6.47611 41.7261 7.04851 40.814C8.34622 40.4996 10.4799 42.9493 11.0669 44.0147L10.8615 44.5102L10.0685 43.1282C10.1 44.0025 10.1057 44.7057 9.85418 45.5579C9.59326 45.4656 9.60982 45.4768 9.44391 45.2546C9.52059 45.1212 9.49114 45.2046 9.49092 44.9946C9.09698 44.3236 8.91429 43.9636 8.20832 43.577L8.0853 43.6337C8.34156 44.2769 8.68137 44.6058 9.21466 45.0135L9.33134 45.1012L8.9234 45.289Z" fill="#FFA719" fill-opacity="0.984314"/>
<path d="M9.33128 45.1012L9.44385 45.2545C9.60976 45.4767 9.5932 45.4656 9.85412 45.5578C10.2951 46.2211 10.6272 46.7677 11.0193 47.4609L10.8493 47.6353L10.6109 47.5876C10.0537 46.5699 9.79767 46.0278 8.92334 45.289L9.33128 45.1012Z" fill="#FFA719" fill-opacity="0.988235"/>
<path d="M10.8616 44.5102L11.0669 44.0147C11.4523 44.9446 11.5947 45.4412 11.6659 46.4511C11.6444 46.6899 11.6544 47.0988 11.5255 47.241C11.4628 47.0121 11.4006 46.7899 11.349 46.5566C11.2077 45.7767 11.0828 45.2723 10.8616 44.5102Z" fill="#FFA719"/>
<path d="M15.4274 52.0648C16.0804 52.4714 16.7467 52.8714 17.3632 53.3313C16.7997 53.2125 15.9134 52.9958 15.3717 52.9869L15.3485 52.5348L15.4274 52.0648Z" fill="#FFA719"/>
<path d="M42.5675 39.6641C42.9171 40.0918 42.7216 42.1638 42.694 42.8993C43.5321 41.9527 44.1143 41.2306 45.2867 40.6673C46.9591 39.8474 48.8931 39.7441 50.6438 40.3796C52.0527 40.8917 53.2474 41.9605 53.9438 43.2681C57.9682 50.8216 53.8216 66.894 42.8153 62.5046C42.7813 63.5211 42.8073 64.6743 42.8103 65.6997C42.8502 68.4972 42.9124 69.1915 44.3415 71.5812C40.4223 71.1857 38.8709 71.1524 35.0267 71.6001C35.7771 70.2569 36.3661 69.1571 36.4081 67.5717C36.5242 63.1601 36.4712 58.7495 36.4705 54.3345C36.4701 51.1216 36.5958 47.7953 36.2368 44.6035C36.1095 43.4714 35.4423 42.2038 34.9506 41.1762C37.8907 41.3706 39.9484 40.9251 42.5675 39.6641ZM42.7165 59.8905C43.6341 61.1214 44.4959 61.548 46.0275 61.0248C49.983 57.9218 50.4165 43.367 45.554 43.2603C42.9443 43.6081 42.8035 45.6389 42.7824 47.6953C42.7408 51.7448 42.9043 55.8521 42.7165 59.8905Z" fill="#F42100"/>
<path d="M23.4597 34.1626C25.6985 34.2515 27.0391 34.4081 29.148 35.3991C32.3219 36.89 34.2995 40.3407 32.7352 43.7247C31.8986 45.6334 28.8559 46.651 27.0641 45.5234C23.4279 43.237 27.2587 41.8216 27.9272 40.5374C28.2128 39.9874 28.2658 39.3453 28.0744 38.7565C27.0342 35.5258 21.0843 35.1591 19.7475 38.622C17.587 44.2191 25.7004 46.4011 29.0534 49.0341C30.9965 50.4372 33.4365 52.6492 34.1684 55.0666C37.6131 66.4474 25.4028 71.5101 16.5539 67.3018C15.4477 66.7152 14.4656 65.9186 13.6613 64.9587C12.3924 63.4256 11.8123 61.7647 12.004 59.7705C12.1495 58.1629 12.9489 56.6864 14.2152 55.6843C17.1324 53.3602 21.7712 53.9457 24.0928 56.8953C23.456 56.8209 22.8272 56.7387 22.1845 56.7609C19.307 56.8497 17.1299 59.1628 17.2691 62.0502C17.4348 65.2465 20.8724 66.9374 23.7362 66.7407C26.7876 66.5308 29.8141 64.0933 29.4404 60.8181C28.7404 54.6822 21.3667 52.7836 17.3388 49.2829C15.51 47.6931 14.1542 45.6845 13.9714 43.217C13.8232 41.1906 14.5362 38.7498 15.8931 37.2133C17.7939 35.0603 20.6904 34.3181 23.4597 34.1626Z" fill="#F42100"/>
<path d="M93.3185 39.9275C95.7388 39.8541 98.1935 40.0608 100.06 41.8239C101.245 42.9471 101.935 44.4947 101.976 46.1267C102.146 52.1115 94.6953 53.1636 90.1603 53.2336C91.0849 56.7753 93.2429 59.1695 97.2501 59.0195C99.1181 58.9495 100.737 57.6452 101.918 56.2676L101.762 58.0552C99.857 64.4999 90.1503 64.6588 86.4332 59.8649C82.5383 54.8411 83.3595 45.5456 88.5535 41.6672C89.9781 40.6029 91.5961 40.2196 93.3185 39.9275ZM90.037 51.4649C91.3438 51.4582 91.8528 51.4327 93.0896 51.0472C94.7175 50.2584 96.0933 49.3252 96.6522 47.5176C97.3856 45.1479 97.0078 41.5584 93.7541 41.7994C90.1503 43.2026 89.9792 48.1398 90.037 51.4649Z" fill="#F42100"/>
<path d="M109.906 39.7008C110.521 39.6508 110.979 39.6797 111.764 39.6541C115.626 39.5452 121.057 42.8537 117.929 47.1143C116.923 48.4841 111.912 47.7553 113.157 45.7733C113.649 44.9912 115.293 43.1803 113.963 42.176C111.096 40.0107 106.19 42.4437 109.109 46.1322C111.064 48.2363 114.733 49.2007 117.146 51.1782C121.056 54.3845 120.663 60.0726 116.148 62.4335C114.545 63.2456 113.56 63.3922 111.775 63.54C109.529 63.5922 107.762 63.4489 105.687 62.2446C102.718 60.5237 101.671 55.4554 105.993 54.6578C106.94 54.4833 107.958 54.75 108.746 55.3155C108.91 55.4321 109.301 55.8409 109.217 56.1865C108.126 57.4152 106.941 59.7582 108.689 61.0214C110.147 62.0757 113.103 62.1346 114.257 60.4581C114.688 59.8382 114.842 59.0661 114.682 58.3284C113.643 53.5901 104.528 53.349 103.645 47.9819C102.817 42.9403 105.235 40.6651 109.906 39.7008Z" fill="#F42100"/>
<path d="M74.9468 39.9374C78.0181 39.5552 81.3862 40.5507 82.6296 43.6036C84.2298 47.5309 81.5481 50.6661 77.495 49.2218C76.6142 48.9085 76.2109 47.9964 75.9593 47.1932C76.5138 44.6046 78.2072 44.9312 78.7973 43.577C78.8459 42.446 77.7372 41.8772 76.8016 41.6972C73.8235 41.125 72.2277 44.669 71.8268 47.0087C71.3218 49.9573 71.613 53.7079 73.2682 56.2498C74.1219 57.5607 75.6519 58.4273 77.1451 58.6773C78.6295 58.895 80.2294 58.5417 81.5708 57.8563C81.751 57.7641 82.784 56.9508 83.0941 56.732L83.2463 56.7942C83.5541 57.7307 82.7085 59.3328 82.1551 60.0638C79.2536 63.9044 73.0772 64.1999 69.3727 61.3969C67.1363 59.6738 65.7968 56.7275 65.5044 53.9468C64.746 46.7321 67.3511 40.8828 74.9468 39.9374Z" fill="#F42100"/>
<path d="M56.2947 40.5574C56.3185 40.5618 56.3425 40.5663 56.3661 40.5707C57.5448 40.8085 58.6365 41.2717 59.2353 42.3927C60.2905 44.3691 58.9232 58.4407 59.8966 59.9038C60.2494 60.1249 60.1239 60.1216 60.4448 60.0605C61.1458 59.2384 60.8792 55.4944 60.8671 54.3157L60.8488 47.1032C60.8433 45.5034 60.7706 44.0769 61.0665 42.4938C61.7381 41.6261 62.9751 40.3407 64.1947 40.7673C64.2211 41.4828 63.4557 44.3569 63.3357 45.479C62.8029 49.4996 63.2114 54.4601 63.5142 58.5218C63.6271 60.036 64.2323 61.2159 64.7216 62.639C64.0575 62.9368 57.0262 62.8468 55.8871 62.7624C57.7531 58.7195 57.4036 54.9778 57.4955 50.6217C57.5386 48.5808 57.4157 46.6744 57.1918 44.6435C57.051 43.3659 56.3519 41.7672 56.2947 40.5574Z" fill="#F42100"/>
<path d="M68.6586 65.3842L68.7977 65.3742C69.6131 65.3198 71.889 65.3865 72.5116 65.9231L72.5291 66.1897C72.2874 66.7219 71.8922 67.0085 71.4414 67.3607C67.9239 70.1025 63.5092 72.1656 58.9532 71.6668C58.2315 71.5879 57.2912 71.0491 57.5892 70.1559C58.0267 68.8471 59.4834 70.0359 60.1384 69.697C60.1674 69.2737 60.1449 69.3837 59.9395 68.9471C59.1469 68.6127 58.5658 68.656 57.7121 68.6238C58.1024 68.2417 58.4943 67.8495 59.0273 67.6751C61.7323 66.7896 64.7646 70.0592 69.6918 67.4495C68.5811 67.5729 62.7567 67.8295 62.1648 66.9496C63.0463 66.4119 67.4914 65.4653 68.6586 65.3842Z" fill="#F42100"/>
<path d="M51.2041 65.8053L51.4075 65.7853C52.1188 66.3896 50.5492 70.2169 57.2861 68.6582C56.8641 69.417 56.7715 70.3658 56.1251 70.8713C55.5967 71.2835 53.2412 70.6758 52.4982 70.5247C50.4538 69.9392 46.9338 68.5983 45.782 66.7852L45.829 66.6274C48.0891 66.4463 48.9895 66.2941 51.2041 65.8053Z" fill="#F42100"/>
<path d="M54.874 65.0532C55.2831 65.0321 55.6924 65.0154 56.1017 65.0021C56.5179 64.9921 56.8327 64.9354 57.0932 65.1854C56.9903 66.4997 57.9184 66.7796 57.633 67.4573C57.0705 67.8428 55.8829 68.0661 55.1953 68.2028C54.0186 68.2894 51.2334 68.0861 52.3854 65.9486C52.7805 65.2154 54.0803 65.1232 54.874 65.0532Z" fill="#F42100"/>
<path d="M61.2717 36.9434C61.6891 37.19 61.8201 37.6166 62.0306 38.061C61.889 39.1309 61.6969 39.4886 61.18 40.4496L60.7585 40.4351C59.9669 39.7597 60.8003 37.6922 61.2717 36.9434Z" fill="#F42100"/>
<path d="M65.0516 36.3057L65.3926 36.3934L65.4624 36.6612C65.259 37.5333 64.5222 38.231 63.7972 38.7076C63.4628 38.6987 63.5994 38.7565 63.3602 38.5687C63.1841 37.7244 64.3818 36.6923 65.0516 36.3057Z" fill="#F42100"/>
<path d="M58.1407 37.3911C58.9875 37.7588 59.6773 39.5186 59.6428 40.4062C58.4635 39.9541 57.7961 38.622 58.1407 37.3911Z" fill="#F42100"/>
<path d="M66.4656 38.2298C66.7846 38.1632 67.0277 38.1554 67.2438 38.3932L67.201 38.6442C66.6779 39.3119 66.5526 39.3108 65.746 39.4786C65.2453 39.423 65.3114 39.5052 64.9677 39.2442L65.0229 39.0253C65.4587 38.6109 65.9115 38.4643 66.4656 38.2298Z" fill="#F42100"/>
<path d="M57.8796 65.0465C58.2255 65.1232 58.3941 65.1209 58.635 65.3765C58.6174 65.8009 58.5921 65.7009 58.2978 66.1153C57.9727 66.0786 57.9745 66.0975 57.7055 65.8853C57.6338 65.4776 57.7074 65.5031 57.8796 65.0465Z" fill="#F42100"/>
<path d="M5.26047 54.0368C5.69563 54.109 6.67886 54.1301 6.87788 54.1868C6.40949 54.6067 5.64662 54.6767 5.20935 54.2034L5.26047 54.0368Z" fill="#596B44" fill-opacity="0.027451"/>
</svg>
